<svg id="Layer_1" data-name="Layer 1" xmlns="http://www.w3.org/2000/svg" viewBox="0 0 427.2072 515.2891"><defs><style>.cls-1,.cls-5{fill:none;stroke-miterlimit:10;}.cls-1{stroke:#231f20;}.cls-2{font-size:12px;}.cls-2,.cls-3{fill:#231f20;font-family:RobotoMono-Regular, Roboto Mono;}.cls-3{font-size:7.541px;}.cls-4{fill:#2e3192;}.cls-5{stroke:#2e3192;}</style></defs><rect class="cls-1" x="82.172" y="108.6395" width="262.7907" height="331.3953"/><rect class="cls-1" x="0.5" y="365.2807" width="81.6908" height="149.5085"/><rect class="cls-1" x="345.0164" y="365.2807" width="81.6908" height="149.5085"/><text class="cls-2" transform="translate(193.0001 393.2875)">Engene<tspan x="-3.6006" y="14.4004">Command</tspan></text><text class="cls-2" transform="translate(187.7047 250.3671)">Dinning<tspan x="10.8018" y="14.4004">Room</tspan></text><text class="cls-2" transform="translate(288.9535 173.5932)">Storige</text><text class="cls-2" transform="translate(89.8623 140.4981)">Bedroom<tspan x="18.0029" y="14.4004">#1</tspan></text><text class="cls-2" transform="translate(89.8623 203.1145)">Bedroom<tspan x="18.0029" y="14.4004">#2</tspan></text><text class="cls-2" transform="translate(89.8623 270.1992)">Bedroom<tspan x="18.0029" y="14.4004">#3</tspan></text><text class="cls-2" transform="translate(306.9566 275.9511)">O2</text><text class="cls-2" transform="translate(202.1072 50.3861)">Nav</text><text class="cls-2" transform="translate(282.6755 355.7764)">Coms</text><text class="cls-2" transform="translate(110.5667 335.8933)">Since</text><text class="cls-3" transform="translate(107.6414 362.9354)">Electarcal</text><path class="cls-1" d="M412.353,212.3945v7.9012H351.5881v-7.9236h48.1386v-108.14H291.5872v108.14h46.0662v7.9236H276.9783v-7.9236H213.2617V403.4775h52.2045v.0919H306v18.6783H288.05v-.2508H231.6954v28.8636h21.21v.3709h-21.21v28.8635H288.05V451.2314H266.84v-.3709h21.21V436.1824H306v12.0708h25.1931v20.76H314.111v63.0919h63.0919V469.0132H356.5335v-20.76h25.3914V436.1824h18.0289v60.8381h56.3541V421.9969H399.9538v.2508H381.9249V403.5694H476.07V212.3945Zm0,21.836v93.908H381.9249v-67.04H351.5881V234.2305Zm-135.3747,0h60.6751V261.099H306v64.9389H276.9783V234.2305Zm0,155.4041V339.9727H306v49.6619Zm135.3747,0H381.9249V342.0734H412.353v47.5612Z" transform="translate(-131.0534 -103.7325)"/><path class="cls-4" d="M393.6994,112.0066c3.2172,0,3.2226-5,0-5-3.2173,0-3.2226,5,0,5Z" transform="translate(-131.0534 -103.7325)"/><path class="cls-4" d="M296.5613,112.0066c3.2173,0,3.2226-5,0-5-3.2173,0-3.2226,5,0,5Z" transform="translate(-131.0534 -103.7325)"/><path class="cls-4" d="M419.04,380.6145c3.2172,0,3.2225-5,0-5-3.2173,0-3.2226,5,0,5Z" transform="translate(-131.0534 -103.7325)"/><path class="cls-4" d="M419.04,353.5848c3.2172,0,3.2225-5,0-5-3.2173,0-3.2226,5,0,5Z" transform="translate(-131.0534 -103.7325)"/><path class="cls-1" d="M276.9783,339.9727l-63.7166-.1672Z" transform="translate(-131.0534 -103.7325)"/><line class="cls-5" x1="145.9249" y1="172.3563" x2="82.2083" y2="172.3563"/><line class="cls-1" x1="281.2996" y1="224.406" x2="345.0164" y2="224.406"/><path class="cls-4" d="M218.0061,347.672c3.2173,0,3.2226-5,0-5-3.2172,0-3.2225,5,0,5Z" transform="translate(-131.0534 -103.7325)"/><path class="cls-4" d="M218.8508,284.3211c3.2173,0,3.2226-5,0-5-3.2172,0-3.2226,5,0,5Z" transform="translate(-131.0534 -103.7325)"/><path class="cls-4" d="M218.0061,219.2808c3.2173,0,3.2226-5,0-5-3.2172,0-3.2225,5,0,5Z" transform="translate(-131.0534 -103.7325)"/><path class="cls-4" d="M321.9017,529.278c3.2172,0,3.2226-5,0-5-3.2173,0-3.2226,5,0,5Z" transform="translate(-131.0534 -103.7325)"/><path class="cls-4" d="M369.2037,529.278c3.2173,0,3.2226-5,0-5-3.2173,0-3.2226,5,0,5Z" transform="translate(-131.0534 -103.7325)"/><path class="cls-4" d="M238.2784,431.2952c3.2173,0,3.2226-5,0-5-3.2172,0-3.2225,5,0,5Z" transform="translate(-131.0534 -103.7325)"/><path class="cls-4" d="M237.4338,477.7526c3.2172,0,3.2226-5,0-5-3.2173,0-3.2226,5,0,5Z" transform="translate(-131.0534 -103.7325)"/><path class="cls-4" d="M283.0464,477.7526c3.2173,0,3.2226-5,0-5-3.2172,0-3.2226,5,0,5Z" transform="translate(-131.0534 -103.7325)"/><path class="cls-4" d="M449.4482,429.6059c3.2173,0,3.2226-5,0-5-3.2173,0-3.2226,5,0,5Z" transform="translate(-131.0534 -103.7325)"/><path class="cls-4" d="M450.2929,492.9568c3.2172,0,3.2226-5,0-5-3.2173,0-3.2226,5,0,5Z" transform="translate(-131.0534 -103.7325)"/></svg>